<?xml version="1.0" standalone="no"?>
<!DOCTYPE svg PUBLIC "-//W3C//DTD SVG 20010904//EN"
 "http://www.w3.org/TR/2001/REC-SVG-20010904/DTD/svg10.dtd">
<svg version="1.0" xmlns="http://www.w3.org/2000/svg"
 width="260.000000pt" height="260.000000pt" viewBox="0 0 260.000000 260.000000"
 preserveAspectRatio="xMidYMid meet">
<metadata>
Created by potrace 1.14, written by Peter Selinger 2001-2017
</metadata>
<g transform="translate(0.000000,260.000000) scale(0.100000,-0.100000)"
fill="#000000" stroke="none">
<path d="M1243 2515 c-7 -8 -13 -28 -13 -45 0 -16 -4 -30 -10 -30 -6 0 -10
-28 -10 -65 0 -37 4 -65 10 -65 6 0 10 -20 10 -45 0 -25 -4 -45 -10 -45 -5 0
-10 -9 -10 -20 0 -17 -7 -20 -45 -20 -38 0 -45 3 -45 20 0 13 -7 20 -20 20
-13 0 -20 -7 -20 -20 0 -15 -7 -20 -25 -20 -22 0 -25 -4 -25 -35 0 -24 5 -35
15 -35 8 0 15 -9 15 -20 0 -11 -7 -20 -15 -20 -10 0 -15 -10 -15 -30 0 -27 -3
-30 -30 -30 -16 0 -30 -5 -30 -11 0 -22 -30 -39 -69 -39 -23 0 -41 -4 -41 -10
0 -5 -9 -10 -20 -10 -11 0 -20 -4 -20 -10 0 -5 -11 -10 -25 -10 -14 0 -25 -4
-25 -10 0 -5 -9 -10 -20 -10 -11 0 -20 5 -20 10 0 6 5 10 10 10 6 0 10 20 10
45 0 38 -3 45 -20 45 -11 0 -20 5 -20 10 0 6 -11 10 -25 10 -14 0 -25 5 -25
10 0 6 -9 10 -20 10 -29 0 -27 -56 3 -83 15 -13 18 -21 10 -24 -18 -7 -17
-101 1 -119 8 -8 24 -14 35 -14 14 0 21 -6 21 -20 0 -11 5 -20 10 -20 6 0 10
-11 10 -25 0 -14 5 -25 10 -25 6 0 10 -25 10 -55 0 -30 5 -55 10 -55 6 0 10
-47 10 -120 0 -73 4 -120 10 -120 6 0 10 -28 10 -65 0 -51 3 -65 15 -65 12 0
15 -13 15 -55 0 -30 5 -55 10 -55 6 0 10 -65 10 -175 0 -110 -4 -175 -10 -175
-5 0 -10 -13 -10 -30 0 -27 3 -30 30 -30 17 0 30 -5 30 -11 0 -17 27 -39 49
-39 12 0 21 -4 21 -10 0 -5 13 -10 28 -10 16 0 34 -8 42 -20 8 -11 18 -20 23
-20 16 0 37 -28 37 -49 0 -12 5 -21 10 -21 6 0 10 -13 10 -30 0 -16 -4 -30
-10 -30 -6 0 -10 -28 -10 -65 0 -63 -1 -65 -25 -65 -16 0 -25 -6 -25 -15 0
-10 -10 -15 -30 -15 -28 0 -30 -2 -30 -40 l0 -40 55 0 55 0 0 -45 c0 -34 4
-45 16 -45 18 0 44 -23 44 -39 0 -6 16 -11 35 -11 19 0 35 -4 35 -10 0 -6 35
-10 85 -10 50 0 85 4 85 10 0 6 11 10 25 10 14 0 25 6 25 13 0 7 9 19 20 27
16 11 20 26 20 67 0 46 3 53 20 53 11 0 20 5 20 10 0 6 5 10 10 10 6 0 10 -25
10 -55 l0 -55 35 0 c28 0 35 4 35 20 0 11 5 20 10 20 6 0 10 7 10 15 0 8 -4
15 -10 15 -5 0 -10 14 -10 30 0 17 -4 30 -10 30 -5 0 -10 11 -10 25 0 23 -4
25 -45 25 -38 0 -45 3 -45 20 0 11 -4 20 -10 20 -5 0 -10 14 -10 30 0 17 5 30
10 30 6 0 10 30 10 70 0 63 2 70 20 70 11 0 20 5 20 10 0 6 7 10 15 10 8 0 15
9 15 20 0 18 7 20 65 20 37 0 65 4 65 10 0 6 7 10 16 10 8 0 22 6 30 14 16 16
19 76 4 76 -6 0 -10 40 -10 100 0 60 4 100 10 100 6 0 10 32 10 75 0 43 4 75
10 75 6 0 10 28 10 65 0 51 3 65 15 65 11 0 15 12 15 45 0 25 5 45 10 45 6 0
10 35 10 85 0 50 4 85 10 85 6 0 10 33 10 78 0 66 3 80 20 92 11 8 20 22 20
32 0 12 8 18 21 18 22 0 49 22 49 39 0 6 -4 11 -10 11 -6 0 -10 28 -10 65 0
58 2 65 20 65 13 0 20 7 20 20 0 13 -7 20 -20 20 -13 0 -20 -7 -20 -20 0 -15
-7 -20 -25 -20 -22 0 -25 -4 -25 -35 0 -32 -2 -35 -30 -35 -23 0 -30 4 -30 20
0 11 -4 20 -10 20 -5 0 -10 7 -10 15 0 8 -7 15 -15 15 -10 0 -15 10 -15 30 0
17 -4 30 -10 30 -5 0 -10 23 -10 51 0 49 15 79 39 79 6 0 11 11 11 25 0 20 -5
25 -25 25 -16 0 -25 -6 -25 -15 0 -8 -9 -15 -20 -15 -18 0 -20 -7 -20 -65 l0
-65 -35 0 c-19 0 -35 5 -35 11 0 15 -26 39 -42 39 -8 0 -20 9 -28 20 -9 12
-26 20 -43 20 -42 0 -57 21 -57 79 0 50 0 51 -31 51 -17 0 -37 6 -45 14 -16
16 -19 76 -4 76 6 0 10 35 10 85 0 50 -4 85 -10 85 -5 0 -10 5 -10 10 0 6 -11
22 -25 35 -28 28 -91 34 -112 10z m137 -715 c0 -6 40 -10 100 -10 l100 0 0
-120 c0 -73 -4 -120 -10 -120 -6 0 -10 -33 -10 -80 0 -79 0 -80 -25 -80 -16 0
-25 6 -25 15 0 8 -4 15 -10 15 -5 0 -10 7 -10 16 0 20 -24 44 -44 44 -9 0 -16
5 -16 10 0 6 -7 10 -15 10 -8 0 -15 5 -15 10 0 6 -9 10 -20 10 -11 0 -20 7
-20 15 0 12 -16 15 -85 15 l-85 0 0 115 c0 79 4 120 13 130 14 17 177 21 177
5z m-300 -55 c0 -14 5 -25 10 -25 6 0 10 -35 10 -85 l0 -85 -35 0 c-19 0 -35
-5 -35 -11 0 -6 -18 -28 -40 -49 -22 -21 -40 -46 -40 -54 0 -10 -9 -16 -25
-16 -23 0 -25 -4 -25 -45 0 -25 -4 -45 -10 -45 -6 0 -10 50 -10 130 0 80 -4
130 -10 130 -6 0 -10 28 -10 65 l0 65 30 0 c17 0 30 5 30 10 0 6 11 10 25 10
16 0 25 6 25 15 0 12 13 15 55 15 52 0 55 -1 55 -25z m665 -50 c22 -21 25 -33
25 -100 0 -43 -4 -75 -10 -75 -5 0 -10 -13 -10 -30 0 -16 -4 -30 -10 -30 -5 0
-10 -25 -10 -55 0 -30 -4 -55 -10 -55 -6 0 -10 -40 -10 -100 0 -60 -4 -100
-10 -100 -5 0 -10 -18 -10 -40 0 -22 -4 -40 -10 -40 -5 0 -10 -25 -10 -55 0
-42 -3 -55 -15 -55 -10 0 -15 -11 -15 -35 0 -19 -4 -35 -10 -35 -6 0 -10 55
-10 145 0 90 4 145 10 145 6 0 10 28 10 65 0 51 3 65 15 65 12 0 15 14 15 65
0 37 4 65 10 65 6 0 10 48 10 125 0 87 4 130 13 140 16 18 14 19 42 -10z
m-235 -740 c0 -43 -1 -45 -30 -45 -16 0 -30 -4 -30 -10 0 -5 -11 -10 -25 -10
-14 0 -25 -4 -25 -10 0 -5 -9 -10 -20 -10 -13 0 -20 -7 -20 -20 0 -11 -4 -20
-10 -20 -5 0 -10 9 -10 20 0 15 -7 20 -25 20 -14 0 -25 5 -25 10 0 6 16 10 35
10 19 0 35 5 35 10 0 6 16 10 35 10 19 0 35 5 35 10 0 12 61 78 73 79 4 1 7
-19 7 -44z m-540 5 c0 -13 7 -20 20 -20 11 0 20 -7 20 -15 0 -9 9 -15 25 -15
14 0 25 -4 25 -10 0 -5 -7 -10 -15 -10 -8 0 -15 -4 -15 -10 0 -15 -49 -12 -66
4 -16 16 -19 96 -4 96 6 0 10 -9 10 -20z"/>
</g>
</svg>
